<?xml version="1.0" encoding="UTF-8"?>
<svg xmlns="http://www.w3.org/2000/svg" version="1.1" viewBox="0 0 115.2 218">
  <!-- Generator: Adobe Illustrator 28.7.1, SVG Export Plug-In . SVG Version: 1.2.0 Build 142)  -->
  <g>
    <g id="_레이어_1" data-name="레이어_1">
      <path d="M-1221.7,2.4h-49.1v212.1h33.3v-79.7h15.8c33.3,0,49.7-18.5,49.7-52.4v-27.6c0-33.9-16.4-52.4-49.7-52.4ZM-1221.7,32.7c10.6,0,16.4,4.8,16.4,20v31.8c0,15.1-5.8,20-16.4,20h-15.8V32.7h15.8Z"/>
      <path d="M-1158.1,2.4v161.5c0,33.9,17,53.3,49.7,53.3s49.7-19.4,49.7-53.3V2.4h-31.5v163.6c0,15.1-6.7,20.6-17.3,20.6s-17.3-5.5-17.3-20.6V2.4h-33.3Z"/>
      <path d="M-1040.1,53.3c0,60.6,65.1,68.8,65.1,112.4s-6.7,20.6-17.3,20.6-17.3-5.5-17.3-20.6v-15.1h-31.5v13c0,33.9,17,53.3,49.7,53.3s49.7-19.4,49.7-53.3c0-60.6-65.1-68.8-65.1-112.4s6.1-20.9,16.7-20.9,16.7,5.8,16.7,20.9v8.8h31.5v-6.7c0-33.9-16.7-53.3-49.1-53.3s-49.1,19.4-49.1,53.3Z"/>
      <path d="M-889.2,123.6h37.9v90.9h33.9V2.4h-33.9v90.9h-37.9V2.4h-33.3v212.1h33.3v-90.9Z"/>
      <path d="M-744.1,2.4h-49.1v212.1h33.3v-79.7h15.8c33.3,0,49.7-18.5,49.7-52.4v-27.6c0-33.9-16.4-52.4-49.7-52.4ZM-744.1,32.7c10.6,0,16.4,4.8,16.4,20v31.8c0,15.1-5.8,20-16.4,20h-15.8V32.7h15.8Z"/>
      <path d="M-680.5,2.4v161.5c0,33.9,17,53.3,49.7,53.3s49.7-19.4,49.7-53.3V2.4h-31.5v163.6c0,15.1-6.7,20.6-17.3,20.6s-17.3-5.5-17.3-20.6V2.4h-33.3Z"/>
      <path d="M-558.3,214.5h88.2v-30.3h-54.8V2.4h-33.3v212.1Z"/>
      <path d="M-455.6,214.5h88.2v-30.3h-54.8V2.4h-33.3v212.1Z"/>
      <path d="M-352.9,214.5h52.7c33.3,0,49.7-18.5,49.7-52.4V54.8c0-33.9-16.4-52.4-49.7-52.4h-52.7v212.1ZM-300.8,32.7c10.6,0,17,5.5,17,20.6v110.3c0,15.2-6.4,20.6-17,20.6h-18.8V32.7h18.8Z"/>
      <path d="M-198.6,51.2c0-15.2,6.7-20.9,17.3-20.9s17.3,5.8,17.3,20.9v114.5c0,15.2-6.7,20.9-17.3,20.9s-17.3-5.8-17.3-20.9V51.2ZM-232,163.6c0,33.9,17.9,53.3,50.6,53.3s50.6-19.4,50.6-53.3V53.3c0-33.9-17.9-53.3-50.6-53.3s-50.6,19.4-50.6,53.3v110.3Z"/>
      <path d="M-78.5,51.2c0-15.2,6.7-20.9,17.3-20.9s17.3,5.8,17.3,20.9v114.5c0,15.2-6.7,20.9-17.3,20.9s-17.3-5.8-17.3-20.9V51.2ZM-111.8,163.6c0,33.9,17.9,53.3,50.6,53.3s50.6-19.4,50.6-53.3V53.3C-10.6,19.4-28.5,0-61.2,0s-50.6,19.4-50.6,53.3v110.3Z"/>
      <path d="M114.7,214.5c-3.3-7.9-3.6-15.5-3.6-25.8v-32.7c0-22.1-5.4-38.2-22.1-45.1,14.9-7,21.8-21.2,21.8-43v-16.7c0-32.7-14.8-48.8-49.4-48.8H11v212.1h33.3v-86.4h11.5c15.1,0,21.8,7.3,21.8,27v33.3c0,17.3,1.2,20.6,3,26.1h33.9ZM60.4,32.7c11.8,0,17,6.7,17,21.8v20.9c0,17-7.6,22.4-20,22.4h-13V32.7h16.1Z"/>
    </g>
  </g>
</svg>